<mxfile host="app.diagrams.net" modified="2023-11-21T09:29:35.167Z" agent="Mozilla/5.0 (Windows NT 10.0; Win64; x64) AppleWebKit/537.36 (KHTML, like Gecko) Chrome/119.0.0.0 Safari/537.36 Edg/119.0.0.0" etag="bSfIubshTvO3ZDhL_ij6" version="22.1.3" type="github">
  <diagram id="C5RBs43oDa-KdzZeNtuy" name="Page-1">
    <mxGraphModel dx="1703" dy="748" grid="1" gridSize="10" guides="1" tooltips="1" connect="1" arrows="1" fold="1" page="0" pageScale="1" pageWidth="827" pageHeight="1169" math="0" shadow="0">
      <root>
        <mxCell id="WIyWlLk6GJQsqaUBKTNV-0" />
        <mxCell id="WIyWlLk6GJQsqaUBKTNV-1" parent="WIyWlLk6GJQsqaUBKTNV-0" />
        <mxCell id="VZu7ic2Oy0kzdrfZ3mis-5" value="" style="edgeStyle=orthogonalEdgeStyle;rounded=0;orthogonalLoop=1;jettySize=auto;html=1;" edge="1" parent="WIyWlLk6GJQsqaUBKTNV-1" source="WIyWlLk6GJQsqaUBKTNV-3" target="VZu7ic2Oy0kzdrfZ3mis-4">
          <mxGeometry relative="1" as="geometry" />
        </mxCell>
        <mxCell id="WIyWlLk6GJQsqaUBKTNV-3" value="&lt;div style=&quot;color: rgb(171, 178, 191); background-color: rgb(40, 44, 52); font-family: &amp;quot;Fira Code&amp;quot;, Consolas, &amp;quot;Courier New&amp;quot;, monospace; font-size: 16px; line-height: 22px;&quot;&gt;initialize_qcarcam_test_ctxt&lt;/div&gt;" style="rounded=1;whiteSpace=wrap;html=1;fontSize=12;glass=0;strokeWidth=1;shadow=0;" parent="WIyWlLk6GJQsqaUBKTNV-1" vertex="1">
          <mxGeometry x="87.5" y="90" width="255" height="30" as="geometry" />
        </mxCell>
        <mxCell id="VZu7ic2Oy0kzdrfZ3mis-1" style="edgeStyle=orthogonalEdgeStyle;rounded=0;orthogonalLoop=1;jettySize=auto;html=1;entryX=0.5;entryY=0;entryDx=0;entryDy=0;" edge="1" parent="WIyWlLk6GJQsqaUBKTNV-1" source="VZu7ic2Oy0kzdrfZ3mis-0" target="WIyWlLk6GJQsqaUBKTNV-3">
          <mxGeometry relative="1" as="geometry" />
        </mxCell>
        <mxCell id="VZu7ic2Oy0kzdrfZ3mis-0" value="&lt;div style=&quot;color: rgb(171, 178, 191); background-color: rgb(40, 44, 52); font-family: &amp;quot;Fira Code&amp;quot;, Consolas, &amp;quot;Courier New&amp;quot;, monospace; font-size: 16px; line-height: 22px;&quot;&gt;main&lt;/div&gt;" style="ellipse;whiteSpace=wrap;html=1;" vertex="1" parent="WIyWlLk6GJQsqaUBKTNV-1">
          <mxGeometry x="190" y="10" width="50" height="30" as="geometry" />
        </mxCell>
        <mxCell id="VZu7ic2Oy0kzdrfZ3mis-7" value="" style="edgeStyle=orthogonalEdgeStyle;rounded=0;orthogonalLoop=1;jettySize=auto;html=1;" edge="1" parent="WIyWlLk6GJQsqaUBKTNV-1" source="VZu7ic2Oy0kzdrfZ3mis-4" target="VZu7ic2Oy0kzdrfZ3mis-6">
          <mxGeometry relative="1" as="geometry" />
        </mxCell>
        <mxCell id="VZu7ic2Oy0kzdrfZ3mis-4" value="&lt;div style=&quot;color: rgb(171, 178, 191); background-color: rgb(40, 44, 52); font-family: &amp;quot;Fira Code&amp;quot;, Consolas, &amp;quot;Courier New&amp;quot;, monospace; font-size: 16px; line-height: 22px;&quot;&gt;qcarcam_test_get_time&lt;/div&gt;" style="whiteSpace=wrap;html=1;rounded=1;glass=0;strokeWidth=1;shadow=0;" vertex="1" parent="WIyWlLk6GJQsqaUBKTNV-1">
          <mxGeometry x="117.5" y="180" width="195" height="35" as="geometry" />
        </mxCell>
        <mxCell id="VZu7ic2Oy0kzdrfZ3mis-9" value="" style="edgeStyle=orthogonalEdgeStyle;rounded=0;orthogonalLoop=1;jettySize=auto;html=1;" edge="1" parent="WIyWlLk6GJQsqaUBKTNV-1" source="VZu7ic2Oy0kzdrfZ3mis-6" target="VZu7ic2Oy0kzdrfZ3mis-8">
          <mxGeometry relative="1" as="geometry" />
        </mxCell>
        <mxCell id="VZu7ic2Oy0kzdrfZ3mis-29" value="" style="edgeStyle=orthogonalEdgeStyle;rounded=0;orthogonalLoop=1;jettySize=auto;html=1;" edge="1" parent="WIyWlLk6GJQsqaUBKTNV-1" source="VZu7ic2Oy0kzdrfZ3mis-6" target="VZu7ic2Oy0kzdrfZ3mis-28">
          <mxGeometry relative="1" as="geometry" />
        </mxCell>
        <mxCell id="VZu7ic2Oy0kzdrfZ3mis-6" value="&lt;div style=&quot;color: rgb(171, 178, 191); background-color: rgb(40, 44, 52); font-family: &amp;quot;Fira Code&amp;quot;, Consolas, &amp;quot;Courier New&amp;quot;, monospace; font-size: 16px; line-height: 22px;&quot;&gt;qcarcam_initialize&lt;/div&gt;" style="whiteSpace=wrap;html=1;rounded=1;glass=0;strokeWidth=1;shadow=0;" vertex="1" parent="WIyWlLk6GJQsqaUBKTNV-1">
          <mxGeometry x="132.5" y="270" width="165" height="27.5" as="geometry" />
        </mxCell>
        <mxCell id="VZu7ic2Oy0kzdrfZ3mis-11" value="" style="edgeStyle=orthogonalEdgeStyle;rounded=0;orthogonalLoop=1;jettySize=auto;html=1;" edge="1" parent="WIyWlLk6GJQsqaUBKTNV-1" source="VZu7ic2Oy0kzdrfZ3mis-8" target="VZu7ic2Oy0kzdrfZ3mis-10">
          <mxGeometry relative="1" as="geometry" />
        </mxCell>
        <mxCell id="VZu7ic2Oy0kzdrfZ3mis-66" value="" style="edgeStyle=orthogonalEdgeStyle;rounded=0;orthogonalLoop=1;jettySize=auto;html=1;" edge="1" parent="WIyWlLk6GJQsqaUBKTNV-1" source="VZu7ic2Oy0kzdrfZ3mis-8" target="VZu7ic2Oy0kzdrfZ3mis-65">
          <mxGeometry relative="1" as="geometry" />
        </mxCell>
        <mxCell id="VZu7ic2Oy0kzdrfZ3mis-8" value="&lt;div style=&quot;color: rgb(171, 178, 191); background-color: rgb(40, 44, 52); font-family: &amp;quot;Fira Code&amp;quot;, Consolas, &amp;quot;Courier New&amp;quot;, monospace; font-size: 16px; line-height: 22px;&quot;&gt;test_util_set_power_callback(&lt;br&gt;&lt;span style=&quot;color: #61afef;&quot;&gt;qcarcam_test_power_event_callback&lt;/span&gt;, &lt;span style=&quot;color: #56b6c2;&quot;&gt;&amp;amp;&lt;/span&gt;&lt;span style=&quot;color: #e06c75;&quot;&gt;gCtxt&lt;/span&gt;)&lt;/div&gt;" style="whiteSpace=wrap;html=1;rounded=1;glass=0;strokeWidth=1;shadow=0;" vertex="1" parent="WIyWlLk6GJQsqaUBKTNV-1">
          <mxGeometry x="27.5" y="350" width="375" height="48.75" as="geometry" />
        </mxCell>
        <mxCell id="VZu7ic2Oy0kzdrfZ3mis-14" value="" style="edgeStyle=orthogonalEdgeStyle;rounded=0;orthogonalLoop=1;jettySize=auto;html=1;" edge="1" parent="WIyWlLk6GJQsqaUBKTNV-1" source="VZu7ic2Oy0kzdrfZ3mis-10" target="VZu7ic2Oy0kzdrfZ3mis-13">
          <mxGeometry relative="1" as="geometry" />
        </mxCell>
        <mxCell id="VZu7ic2Oy0kzdrfZ3mis-69" value="" style="edgeStyle=orthogonalEdgeStyle;rounded=0;orthogonalLoop=1;jettySize=auto;html=1;" edge="1" parent="WIyWlLk6GJQsqaUBKTNV-1" source="VZu7ic2Oy0kzdrfZ3mis-10" target="VZu7ic2Oy0kzdrfZ3mis-68">
          <mxGeometry relative="1" as="geometry" />
        </mxCell>
        <mxCell id="VZu7ic2Oy0kzdrfZ3mis-10" value="&lt;div style=&quot;color: rgb(171, 178, 191); background-color: rgb(40, 44, 52); font-family: &amp;quot;Fira Code&amp;quot;, Consolas, &amp;quot;Courier New&amp;quot;, monospace; font-size: 16px; line-height: 22px;&quot;&gt;test_util_init&lt;/div&gt;" style="whiteSpace=wrap;html=1;rounded=1;glass=0;strokeWidth=1;shadow=0;" vertex="1" parent="WIyWlLk6GJQsqaUBKTNV-1">
          <mxGeometry x="147.5" y="450" width="135" height="26.88" as="geometry" />
        </mxCell>
        <mxCell id="VZu7ic2Oy0kzdrfZ3mis-16" value="" style="edgeStyle=orthogonalEdgeStyle;rounded=0;orthogonalLoop=1;jettySize=auto;html=1;" edge="1" parent="WIyWlLk6GJQsqaUBKTNV-1" source="VZu7ic2Oy0kzdrfZ3mis-13" target="VZu7ic2Oy0kzdrfZ3mis-15">
          <mxGeometry relative="1" as="geometry" />
        </mxCell>
        <mxCell id="VZu7ic2Oy0kzdrfZ3mis-13" value="&lt;div style=&quot;color: rgb(171, 178, 191); background-color: rgb(40, 44, 52); font-family: &amp;quot;Fira Code&amp;quot;, Consolas, &amp;quot;Courier New&amp;quot;, monospace; font-size: 16px; line-height: 22px;&quot;&gt;test_util_parse_xml_config_file_v2&lt;/div&gt;" style="whiteSpace=wrap;html=1;rounded=1;glass=0;strokeWidth=1;shadow=0;" vertex="1" parent="WIyWlLk6GJQsqaUBKTNV-1">
          <mxGeometry x="62.5" y="530" width="305" height="29.68" as="geometry" />
        </mxCell>
        <mxCell id="VZu7ic2Oy0kzdrfZ3mis-18" value="" style="edgeStyle=orthogonalEdgeStyle;rounded=0;orthogonalLoop=1;jettySize=auto;html=1;" edge="1" parent="WIyWlLk6GJQsqaUBKTNV-1" source="VZu7ic2Oy0kzdrfZ3mis-15" target="VZu7ic2Oy0kzdrfZ3mis-17">
          <mxGeometry relative="1" as="geometry" />
        </mxCell>
        <mxCell id="VZu7ic2Oy0kzdrfZ3mis-81" value="" style="edgeStyle=orthogonalEdgeStyle;rounded=0;orthogonalLoop=1;jettySize=auto;html=1;" edge="1" parent="WIyWlLk6GJQsqaUBKTNV-1" source="VZu7ic2Oy0kzdrfZ3mis-15" target="VZu7ic2Oy0kzdrfZ3mis-80">
          <mxGeometry relative="1" as="geometry" />
        </mxCell>
        <mxCell id="VZu7ic2Oy0kzdrfZ3mis-15" value="&lt;div style=&quot;color: rgb(171, 178, 191); background-color: rgb(40, 44, 52); font-family: &amp;quot;Fira Code&amp;quot;, Consolas, &amp;quot;Courier New&amp;quot;, monospace; font-size: 16px; line-height: 22px;&quot;&gt;qcarcam_query_inputs&lt;/div&gt;" style="whiteSpace=wrap;html=1;rounded=1;glass=0;strokeWidth=1;shadow=0;" vertex="1" parent="WIyWlLk6GJQsqaUBKTNV-1">
          <mxGeometry x="122.5" y="610" width="185" height="35.48" as="geometry" />
        </mxCell>
        <mxCell id="VZu7ic2Oy0kzdrfZ3mis-21" style="edgeStyle=orthogonalEdgeStyle;rounded=0;orthogonalLoop=1;jettySize=auto;html=1;entryX=0.5;entryY=0;entryDx=0;entryDy=0;" edge="1" parent="WIyWlLk6GJQsqaUBKTNV-1" source="VZu7ic2Oy0kzdrfZ3mis-17" target="VZu7ic2Oy0kzdrfZ3mis-20">
          <mxGeometry relative="1" as="geometry" />
        </mxCell>
        <mxCell id="VZu7ic2Oy0kzdrfZ3mis-17" value="&lt;div style=&quot;color: rgb(171, 178, 191); background-color: rgb(40, 44, 52); font-family: &amp;quot;Fira Code&amp;quot;, Consolas, &amp;quot;Courier New&amp;quot;, monospace; font-size: 16px; line-height: 22px;&quot;&gt;CameraCreateThread(, , &lt;span style=&quot;color: #56b6c2;&quot;&gt;&amp;amp;&lt;/span&gt;&lt;span style=&quot;color: #61afef;&quot;&gt;signal_thread&lt;/span&gt;, , , , )&lt;/div&gt;" style="whiteSpace=wrap;html=1;rounded=1;glass=0;strokeWidth=1;shadow=0;" vertex="1" parent="WIyWlLk6GJQsqaUBKTNV-1">
          <mxGeometry x="7.5" y="700" width="415" height="36.78" as="geometry" />
        </mxCell>
        <mxCell id="VZu7ic2Oy0kzdrfZ3mis-23" value="" style="edgeStyle=orthogonalEdgeStyle;rounded=0;orthogonalLoop=1;jettySize=auto;html=1;" edge="1" parent="WIyWlLk6GJQsqaUBKTNV-1" source="VZu7ic2Oy0kzdrfZ3mis-20" target="VZu7ic2Oy0kzdrfZ3mis-22">
          <mxGeometry relative="1" as="geometry" />
        </mxCell>
        <mxCell id="VZu7ic2Oy0kzdrfZ3mis-20" value="&lt;div style=&quot;color: rgb(171, 178, 191); background-color: rgb(40, 44, 52); font-family: &amp;quot;Fira Code&amp;quot;, Consolas, &amp;quot;Courier New&amp;quot;, monospace; font-size: 16px; line-height: 22px;&quot;&gt;CameraCreateThread(, , &lt;span style=&quot;color: #56b6c2;&quot;&gt;&amp;amp;&lt;/span&gt;check_error_thread, , , , )&lt;br&gt;&lt;/div&gt;" style="whiteSpace=wrap;html=1;rounded=1;glass=0;strokeWidth=1;shadow=0;" vertex="1" parent="WIyWlLk6GJQsqaUBKTNV-1">
          <mxGeometry x="-16.25" y="780" width="462.5" height="30" as="geometry" />
        </mxCell>
        <mxCell id="VZu7ic2Oy0kzdrfZ3mis-25" value="" style="edgeStyle=orthogonalEdgeStyle;rounded=0;orthogonalLoop=1;jettySize=auto;html=1;" edge="1" parent="WIyWlLk6GJQsqaUBKTNV-1" source="VZu7ic2Oy0kzdrfZ3mis-22" target="VZu7ic2Oy0kzdrfZ3mis-24">
          <mxGeometry relative="1" as="geometry" />
        </mxCell>
        <mxCell id="VZu7ic2Oy0kzdrfZ3mis-22" value="&lt;div style=&quot;color: rgb(171, 178, 191); background-color: rgb(40, 44, 52); font-family: &amp;quot;Fira Code&amp;quot;, Consolas, &amp;quot;Courier New&amp;quot;, monospace; font-size: 16px; line-height: 22px;&quot;&gt;(&lt;b&gt;intr_thrd_args&lt;/b&gt;.&lt;span style=&quot;color: #e06c75;&quot;&gt;cb_func&lt;/span&gt; &lt;span style=&quot;color: #c678dd;&quot;&gt;=&lt;/span&gt; qcarcam_test_gpio_interrupt_cb)/&lt;br&gt;(&lt;span style=&quot;color: rgb(224, 108, 117);&quot;&gt;intr_thrd_args&lt;/span&gt;&lt;span style=&quot;&quot;&gt;.&lt;/span&gt;&lt;span style=&quot;color: rgb(224, 108, 117);&quot;&gt;cb_func&lt;/span&gt;&lt;span style=&quot;&quot;&gt; &lt;/span&gt;&lt;span style=&quot;color: rgb(198, 120, 221);&quot;&gt;=&lt;/span&gt;&lt;span style=&quot;&quot;&gt; &lt;/span&gt;&lt;span style=&quot;color: rgb(97, 175, 239);&quot;&gt;qcarcam_test_gpio_play_pause_cb&lt;/span&gt;)/&lt;br&gt;(&lt;span style=&quot;color: rgb(224, 108, 117);&quot;&gt;intr_thrd_args&lt;/span&gt;&lt;span style=&quot;&quot;&gt;.&lt;/span&gt;&lt;span style=&quot;color: rgb(224, 108, 117);&quot;&gt;cb_func&lt;/span&gt;&lt;span style=&quot;&quot;&gt; &lt;/span&gt;&lt;span style=&quot;color: rgb(198, 120, 221);&quot;&gt;=&lt;/span&gt;&lt;span style=&quot;&quot;&gt; &lt;/span&gt;&lt;span style=&quot;color: rgb(97, 175, 239);&quot;&gt;qcarcam_test_gpio_start_stop_cb&lt;/span&gt;&lt;span style=&quot;color: rgb(97, 175, 239);&quot;&gt;)&lt;/span&gt;&lt;/div&gt;" style="whiteSpace=wrap;html=1;rounded=1;glass=0;strokeWidth=1;shadow=0;" vertex="1" parent="WIyWlLk6GJQsqaUBKTNV-1">
          <mxGeometry x="-57.5" y="870" width="545" height="75" as="geometry" />
        </mxCell>
        <mxCell id="VZu7ic2Oy0kzdrfZ3mis-83" style="edgeStyle=orthogonalEdgeStyle;rounded=0;orthogonalLoop=1;jettySize=auto;html=1;entryX=0;entryY=0.5;entryDx=0;entryDy=0;" edge="1" parent="WIyWlLk6GJQsqaUBKTNV-1" source="VZu7ic2Oy0kzdrfZ3mis-24" target="VZu7ic2Oy0kzdrfZ3mis-82">
          <mxGeometry relative="1" as="geometry" />
        </mxCell>
        <mxCell id="VZu7ic2Oy0kzdrfZ3mis-24" value="&lt;div style=&quot;color: rgb(171, 178, 191); background-color: rgb(40, 44, 52); font-family: &amp;quot;Fira Code&amp;quot;, Consolas, &amp;quot;Courier New&amp;quot;, monospace; font-size: 16px; line-height: 22px;&quot;&gt;test_util_interrupt_attach&lt;/div&gt;" style="whiteSpace=wrap;html=1;rounded=1;glass=0;strokeWidth=1;shadow=0;" vertex="1" parent="WIyWlLk6GJQsqaUBKTNV-1">
          <mxGeometry x="97.5" y="1000" width="235" height="27.5" as="geometry" />
        </mxCell>
        <mxCell id="VZu7ic2Oy0kzdrfZ3mis-85" value="" style="edgeStyle=orthogonalEdgeStyle;rounded=0;orthogonalLoop=1;jettySize=auto;html=1;" edge="1" parent="WIyWlLk6GJQsqaUBKTNV-1" source="VZu7ic2Oy0kzdrfZ3mis-26" target="VZu7ic2Oy0kzdrfZ3mis-84">
          <mxGeometry relative="1" as="geometry" />
        </mxCell>
        <mxCell id="VZu7ic2Oy0kzdrfZ3mis-87" value="" style="edgeStyle=orthogonalEdgeStyle;rounded=0;orthogonalLoop=1;jettySize=auto;html=1;" edge="1" parent="WIyWlLk6GJQsqaUBKTNV-1" source="VZu7ic2Oy0kzdrfZ3mis-26" target="VZu7ic2Oy0kzdrfZ3mis-86">
          <mxGeometry relative="1" as="geometry" />
        </mxCell>
        <mxCell id="VZu7ic2Oy0kzdrfZ3mis-26" value="&lt;div style=&quot;color: rgb(171, 178, 191); background-color: rgb(40, 44, 52); font-family: &amp;quot;Fira Code&amp;quot;, Consolas, &amp;quot;Courier New&amp;quot;, monospace; font-size: 16px; line-height: 22px;&quot;&gt;CameraCreateThread(, , &lt;span style=&quot;color: #56b6c2;&quot;&gt;&amp;amp;&lt;/span&gt;framerate_thread, , , , )&lt;br&gt;&lt;/div&gt;" style="whiteSpace=wrap;html=1;rounded=1;glass=0;strokeWidth=1;shadow=0;" vertex="1" parent="WIyWlLk6GJQsqaUBKTNV-1">
          <mxGeometry x="-6.25" y="1080" width="442.5" height="30" as="geometry" />
        </mxCell>
        <mxCell id="VZu7ic2Oy0kzdrfZ3mis-27" style="edgeStyle=orthogonalEdgeStyle;rounded=0;orthogonalLoop=1;jettySize=auto;html=1;entryX=0.5;entryY=0;entryDx=0;entryDy=0;" edge="1" parent="WIyWlLk6GJQsqaUBKTNV-1" source="VZu7ic2Oy0kzdrfZ3mis-24" target="VZu7ic2Oy0kzdrfZ3mis-26">
          <mxGeometry relative="1" as="geometry" />
        </mxCell>
        <mxCell id="VZu7ic2Oy0kzdrfZ3mis-31" value="" style="edgeStyle=orthogonalEdgeStyle;rounded=0;orthogonalLoop=1;jettySize=auto;html=1;" edge="1" parent="WIyWlLk6GJQsqaUBKTNV-1" source="VZu7ic2Oy0kzdrfZ3mis-28" target="VZu7ic2Oy0kzdrfZ3mis-30">
          <mxGeometry relative="1" as="geometry" />
        </mxCell>
        <mxCell id="VZu7ic2Oy0kzdrfZ3mis-28" value="&lt;div style=&quot;color: rgb(171, 178, 191); background-color: rgb(40, 44, 52); font-family: &amp;quot;Fira Code&amp;quot;, Consolas, &amp;quot;Courier New&amp;quot;, monospace; font-size: 16px; line-height: 22px;&quot;&gt;ais_clent.c&lt;/div&gt;&lt;div style=&quot;color: rgb(171, 178, 191); background-color: rgb(40, 44, 52); font-family: &amp;quot;Fira Code&amp;quot;, Consolas, &amp;quot;Courier New&amp;quot;, monospace; font-size: 16px; line-height: 22px;&quot;&gt;ais_initialize&lt;/div&gt;" style="whiteSpace=wrap;html=1;rounded=1;glass=0;strokeWidth=1;shadow=0;" vertex="1" parent="WIyWlLk6GJQsqaUBKTNV-1">
          <mxGeometry x="460" y="258.75" width="133.75" height="50" as="geometry" />
        </mxCell>
        <mxCell id="VZu7ic2Oy0kzdrfZ3mis-33" value="" style="edgeStyle=orthogonalEdgeStyle;rounded=0;orthogonalLoop=1;jettySize=auto;html=1;" edge="1" parent="WIyWlLk6GJQsqaUBKTNV-1" source="VZu7ic2Oy0kzdrfZ3mis-30" target="VZu7ic2Oy0kzdrfZ3mis-32">
          <mxGeometry relative="1" as="geometry" />
        </mxCell>
        <mxCell id="VZu7ic2Oy0kzdrfZ3mis-35" value="" style="edgeStyle=orthogonalEdgeStyle;rounded=0;orthogonalLoop=1;jettySize=auto;html=1;" edge="1" parent="WIyWlLk6GJQsqaUBKTNV-1" source="VZu7ic2Oy0kzdrfZ3mis-30" target="VZu7ic2Oy0kzdrfZ3mis-34">
          <mxGeometry relative="1" as="geometry" />
        </mxCell>
        <mxCell id="VZu7ic2Oy0kzdrfZ3mis-30" value="&lt;div style=&quot;color: rgb(171, 178, 191); background-color: rgb(40, 44, 52); font-family: &amp;quot;Fira Code&amp;quot;, Consolas, &amp;quot;Courier New&amp;quot;, monospace; font-size: 16px; line-height: 22px;&quot;&gt;ais_client_create&lt;/div&gt;" style="whiteSpace=wrap;html=1;rounded=1;glass=0;strokeWidth=1;shadow=0;" vertex="1" parent="WIyWlLk6GJQsqaUBKTNV-1">
          <mxGeometry x="450.31" y="360" width="153.13" height="26.25" as="geometry" />
        </mxCell>
        <mxCell id="VZu7ic2Oy0kzdrfZ3mis-32" value="&lt;div style=&quot;color: rgb(171, 178, 191); background-color: rgb(40, 44, 52); font-family: &amp;quot;Fira Code&amp;quot;, Consolas, &amp;quot;Courier New&amp;quot;, monospace; font-size: 16px; line-height: 22px;&quot;&gt;CameraEnableMPMTimer&lt;/div&gt;" style="whiteSpace=wrap;html=1;rounded=1;glass=0;strokeWidth=1;shadow=0;" vertex="1" parent="WIyWlLk6GJQsqaUBKTNV-1">
          <mxGeometry x="435.31" y="430" width="183.13" height="30.63" as="geometry" />
        </mxCell>
        <mxCell id="VZu7ic2Oy0kzdrfZ3mis-37" value="" style="edgeStyle=orthogonalEdgeStyle;rounded=0;orthogonalLoop=1;jettySize=auto;html=1;" edge="1" parent="WIyWlLk6GJQsqaUBKTNV-1" source="VZu7ic2Oy0kzdrfZ3mis-34" target="VZu7ic2Oy0kzdrfZ3mis-36">
          <mxGeometry relative="1" as="geometry" />
        </mxCell>
        <mxCell id="VZu7ic2Oy0kzdrfZ3mis-45" value="" style="edgeStyle=orthogonalEdgeStyle;rounded=0;orthogonalLoop=1;jettySize=auto;html=1;" edge="1" parent="WIyWlLk6GJQsqaUBKTNV-1" source="VZu7ic2Oy0kzdrfZ3mis-34" target="VZu7ic2Oy0kzdrfZ3mis-44">
          <mxGeometry relative="1" as="geometry" />
        </mxCell>
        <mxCell id="VZu7ic2Oy0kzdrfZ3mis-34" value="&lt;div style=&quot;color: rgb(171, 178, 191); background-color: rgb(40, 44, 52); font-family: &amp;quot;Fira Code&amp;quot;, Consolas, &amp;quot;Courier New&amp;quot;, monospace; font-size: 16px; line-height: 22px;&quot;&gt;ais_client_alloc&lt;/div&gt;" style="whiteSpace=wrap;html=1;rounded=1;glass=0;strokeWidth=1;shadow=0;" vertex="1" parent="WIyWlLk6GJQsqaUBKTNV-1">
          <mxGeometry x="700.01" y="359.37" width="149.99" height="26.88" as="geometry" />
        </mxCell>
        <mxCell id="VZu7ic2Oy0kzdrfZ3mis-39" value="" style="edgeStyle=orthogonalEdgeStyle;rounded=0;orthogonalLoop=1;jettySize=auto;html=1;" edge="1" parent="WIyWlLk6GJQsqaUBKTNV-1" source="VZu7ic2Oy0kzdrfZ3mis-36" target="VZu7ic2Oy0kzdrfZ3mis-38">
          <mxGeometry relative="1" as="geometry" />
        </mxCell>
        <mxCell id="VZu7ic2Oy0kzdrfZ3mis-36" value="&lt;div style=&quot;color: rgb(171, 178, 191); background-color: rgb(40, 44, 52); font-family: &amp;quot;Fira Code&amp;quot;, Consolas, &amp;quot;Courier New&amp;quot;, monospace; font-size: 16px; line-height: 22px;&quot;&gt;ais_client_exchange&lt;/div&gt;" style="whiteSpace=wrap;html=1;rounded=1;glass=0;strokeWidth=1;shadow=0;" vertex="1" parent="WIyWlLk6GJQsqaUBKTNV-1">
          <mxGeometry x="687.5" y="430.32" width="175" height="30.31" as="geometry" />
        </mxCell>
        <mxCell id="VZu7ic2Oy0kzdrfZ3mis-41" value="" style="edgeStyle=orthogonalEdgeStyle;rounded=0;orthogonalLoop=1;jettySize=auto;html=1;" edge="1" parent="WIyWlLk6GJQsqaUBKTNV-1" source="VZu7ic2Oy0kzdrfZ3mis-38" target="VZu7ic2Oy0kzdrfZ3mis-40">
          <mxGeometry relative="1" as="geometry" />
        </mxCell>
        <mxCell id="VZu7ic2Oy0kzdrfZ3mis-56" style="edgeStyle=orthogonalEdgeStyle;rounded=0;orthogonalLoop=1;jettySize=auto;html=1;entryX=0;entryY=0.5;entryDx=0;entryDy=0;" edge="1" parent="WIyWlLk6GJQsqaUBKTNV-1" source="VZu7ic2Oy0kzdrfZ3mis-38" target="VZu7ic2Oy0kzdrfZ3mis-48">
          <mxGeometry relative="1" as="geometry" />
        </mxCell>
        <mxCell id="VZu7ic2Oy0kzdrfZ3mis-38" value="&lt;div style=&quot;color: rgb(171, 178, 191); background-color: rgb(40, 44, 52); font-family: &amp;quot;Fira Code&amp;quot;, Consolas, &amp;quot;Courier New&amp;quot;, monospace; font-size: 16px; line-height: 22px;&quot;&gt;ais_client_create_main_conn&lt;/div&gt;" style="whiteSpace=wrap;html=1;rounded=1;glass=0;strokeWidth=1;shadow=0;" vertex="1" parent="WIyWlLk6GJQsqaUBKTNV-1">
          <mxGeometry x="652.5" y="509.99999999999994" width="245" height="34.22" as="geometry" />
        </mxCell>
        <mxCell id="VZu7ic2Oy0kzdrfZ3mis-43" value="" style="edgeStyle=orthogonalEdgeStyle;rounded=0;orthogonalLoop=1;jettySize=auto;html=1;" edge="1" parent="WIyWlLk6GJQsqaUBKTNV-1" source="VZu7ic2Oy0kzdrfZ3mis-40" target="VZu7ic2Oy0kzdrfZ3mis-42">
          <mxGeometry relative="1" as="geometry" />
        </mxCell>
        <mxCell id="VZu7ic2Oy0kzdrfZ3mis-40" value="&lt;div style=&quot;color: rgb(171, 178, 191); background-color: rgb(40, 44, 52); font-family: &amp;quot;Fira Code&amp;quot;, Consolas, &amp;quot;Courier New&amp;quot;, monospace; font-size: 16px; line-height: 22px;&quot;&gt;ais_client_create_event_conn&lt;/div&gt;" style="whiteSpace=wrap;html=1;rounded=1;glass=0;strokeWidth=1;shadow=0;" vertex="1" parent="WIyWlLk6GJQsqaUBKTNV-1">
          <mxGeometry x="647.5" y="590" width="255" height="28.67" as="geometry" />
        </mxCell>
        <mxCell id="VZu7ic2Oy0kzdrfZ3mis-64" style="edgeStyle=orthogonalEdgeStyle;rounded=0;orthogonalLoop=1;jettySize=auto;html=1;" edge="1" parent="WIyWlLk6GJQsqaUBKTNV-1" source="VZu7ic2Oy0kzdrfZ3mis-42" target="VZu7ic2Oy0kzdrfZ3mis-63">
          <mxGeometry relative="1" as="geometry" />
        </mxCell>
        <mxCell id="VZu7ic2Oy0kzdrfZ3mis-42" value="&lt;div style=&quot;color: rgb(171, 178, 191); background-color: rgb(40, 44, 52); font-family: &amp;quot;Fira Code&amp;quot;, Consolas, &amp;quot;Courier New&amp;quot;, monospace; font-size: 16px; line-height: 22px;&quot;&gt;ais_client_create_health_thread&lt;/div&gt;" style="whiteSpace=wrap;html=1;rounded=1;glass=0;strokeWidth=1;shadow=0;" vertex="1" parent="WIyWlLk6GJQsqaUBKTNV-1">
          <mxGeometry x="632.51" y="673" width="285" height="27" as="geometry" />
        </mxCell>
        <mxCell id="VZu7ic2Oy0kzdrfZ3mis-47" value="" style="edgeStyle=orthogonalEdgeStyle;rounded=0;orthogonalLoop=1;jettySize=auto;html=1;" edge="1" parent="WIyWlLk6GJQsqaUBKTNV-1" source="VZu7ic2Oy0kzdrfZ3mis-44" target="VZu7ic2Oy0kzdrfZ3mis-46">
          <mxGeometry relative="1" as="geometry" />
        </mxCell>
        <mxCell id="VZu7ic2Oy0kzdrfZ3mis-44" value="&lt;div style=&quot;color: rgb(171, 178, 191); background-color: rgb(40, 44, 52); font-family: &amp;quot;Fira Code&amp;quot;, Consolas, &amp;quot;Courier New&amp;quot;, monospace; font-size: 16px; line-height: 22px;&quot;&gt;ais_client_init&lt;/div&gt;" style="whiteSpace=wrap;html=1;rounded=1;glass=0;strokeWidth=1;shadow=0;" vertex="1" parent="WIyWlLk6GJQsqaUBKTNV-1">
          <mxGeometry x="980" y="359.06" width="145.01" height="27.19" as="geometry" />
        </mxCell>
        <mxCell id="VZu7ic2Oy0kzdrfZ3mis-46" value="&lt;div style=&quot;color: rgb(171, 178, 191); background-color: rgb(40, 44, 52); font-family: &amp;quot;Fira Code&amp;quot;, Consolas, &amp;quot;Courier New&amp;quot;, monospace; font-size: 16px; line-height: 22px;&quot;&gt;qnx/ais_conn.c&lt;/div&gt;&lt;div style=&quot;color: rgb(171, 178, 191); background-color: rgb(40, 44, 52); font-family: &amp;quot;Fira Code&amp;quot;, Consolas, &amp;quot;Courier New&amp;quot;, monospace; font-size: 16px; line-height: 22px;&quot;&gt;ais_conn_init&lt;/div&gt;" style="whiteSpace=wrap;html=1;rounded=1;glass=0;strokeWidth=1;shadow=0;" vertex="1" parent="WIyWlLk6GJQsqaUBKTNV-1">
          <mxGeometry x="1210" y="347.11" width="132.49" height="51.09" as="geometry" />
        </mxCell>
        <mxCell id="VZu7ic2Oy0kzdrfZ3mis-51" value="" style="edgeStyle=orthogonalEdgeStyle;rounded=0;orthogonalLoop=1;jettySize=auto;html=1;" edge="1" parent="WIyWlLk6GJQsqaUBKTNV-1" source="VZu7ic2Oy0kzdrfZ3mis-48" target="VZu7ic2Oy0kzdrfZ3mis-50">
          <mxGeometry relative="1" as="geometry" />
        </mxCell>
        <mxCell id="VZu7ic2Oy0kzdrfZ3mis-55" value="" style="edgeStyle=orthogonalEdgeStyle;rounded=0;orthogonalLoop=1;jettySize=auto;html=1;" edge="1" parent="WIyWlLk6GJQsqaUBKTNV-1" source="VZu7ic2Oy0kzdrfZ3mis-48" target="VZu7ic2Oy0kzdrfZ3mis-54">
          <mxGeometry relative="1" as="geometry" />
        </mxCell>
        <mxCell id="VZu7ic2Oy0kzdrfZ3mis-48" value="&lt;div style=&quot;color: rgb(171, 178, 191); background-color: rgb(40, 44, 52); font-family: &amp;quot;Fira Code&amp;quot;, Consolas, &amp;quot;Courier New&amp;quot;, monospace; font-size: 16px; line-height: 22px;&quot;&gt;ais_conn_open&lt;/div&gt;" style="whiteSpace=wrap;html=1;rounded=1;glass=0;strokeWidth=1;shadow=0;" vertex="1" parent="WIyWlLk6GJQsqaUBKTNV-1">
          <mxGeometry x="1255" y="510" width="120" height="34.53" as="geometry" />
        </mxCell>
        <mxCell id="VZu7ic2Oy0kzdrfZ3mis-58" value="" style="edgeStyle=orthogonalEdgeStyle;rounded=0;orthogonalLoop=1;jettySize=auto;html=1;" edge="1" parent="WIyWlLk6GJQsqaUBKTNV-1" source="VZu7ic2Oy0kzdrfZ3mis-50" target="VZu7ic2Oy0kzdrfZ3mis-57">
          <mxGeometry relative="1" as="geometry" />
        </mxCell>
        <mxCell id="VZu7ic2Oy0kzdrfZ3mis-50" value="&lt;div style=&quot;color: rgb(171, 178, 191); background-color: rgb(40, 44, 52); font-family: &amp;quot;Fira Code&amp;quot;, Consolas, &amp;quot;Courier New&amp;quot;, monospace; font-size: 16px; line-height: 22px;&quot;&gt;ais_conn_connect&lt;/div&gt;" style="whiteSpace=wrap;html=1;rounded=1;glass=0;strokeWidth=1;shadow=0;" vertex="1" parent="WIyWlLk6GJQsqaUBKTNV-1">
          <mxGeometry x="1240" y="570" width="150" height="30" as="geometry" />
        </mxCell>
        <mxCell id="VZu7ic2Oy0kzdrfZ3mis-54" value="&lt;div style=&quot;color: rgb(171, 178, 191); background-color: rgb(40, 44, 52); font-family: &amp;quot;Fira Code&amp;quot;, Consolas, &amp;quot;Courier New&amp;quot;, monospace; font-size: 16px; line-height: 22px;&quot;&gt;pthread_mutex_init&lt;/div&gt;" style="whiteSpace=wrap;html=1;rounded=1;glass=0;strokeWidth=1;shadow=0;" vertex="1" parent="WIyWlLk6GJQsqaUBKTNV-1">
          <mxGeometry x="1455" y="513.88" width="170" height="26.78" as="geometry" />
        </mxCell>
        <mxCell id="VZu7ic2Oy0kzdrfZ3mis-60" value="" style="edgeStyle=orthogonalEdgeStyle;rounded=0;orthogonalLoop=1;jettySize=auto;html=1;" edge="1" parent="WIyWlLk6GJQsqaUBKTNV-1" source="VZu7ic2Oy0kzdrfZ3mis-57" target="VZu7ic2Oy0kzdrfZ3mis-59">
          <mxGeometry relative="1" as="geometry" />
        </mxCell>
        <mxCell id="VZu7ic2Oy0kzdrfZ3mis-57" value="&lt;div style=&quot;color: rgb(171, 178, 191); background-color: rgb(40, 44, 52); font-family: &amp;quot;Fira Code&amp;quot;, Consolas, &amp;quot;Courier New&amp;quot;, monospace; font-size: 16px; line-height: 22px;&quot;&gt;socket(AF_UNIX, SOCK_STREAM, &lt;span style=&quot;color: #d19a66;&quot;&gt;0&lt;/span&gt;)&lt;/div&gt;" style="whiteSpace=wrap;html=1;rounded=1;glass=0;strokeWidth=1;shadow=0;" vertex="1" parent="WIyWlLk6GJQsqaUBKTNV-1">
          <mxGeometry x="1470" y="567.5" width="285" height="35" as="geometry" />
        </mxCell>
        <mxCell id="VZu7ic2Oy0kzdrfZ3mis-59" value="&lt;div style=&quot;color: rgb(171, 178, 191); background-color: rgb(40, 44, 52); font-family: &amp;quot;Fira Code&amp;quot;, Consolas, &amp;quot;Courier New&amp;quot;, monospace; font-size: 16px; line-height: 22px;&quot;&gt;connect(&lt;span style=&quot;color: #e06c75;&quot;&gt;fd&lt;/span&gt;, (&lt;span style=&quot;color: #c678dd;&quot;&gt;struct&lt;/span&gt; &lt;span style=&quot;color: #e5c07b;&quot;&gt;sockaddr&lt;/span&gt;&lt;span style=&quot;color: #c678dd;&quot;&gt;*&lt;/span&gt;)&lt;span style=&quot;color: #c678dd;&quot;&gt;&amp;amp;&lt;/span&gt;&lt;span style=&quot;color: #e06c75;&quot;&gt;addr&lt;/span&gt;, &lt;span style=&quot;color: #c678dd;&quot;&gt;sizeof&lt;/span&gt;(&lt;span style=&quot;color: #e06c75;&quot;&gt;addr&lt;/span&gt;))&lt;/div&gt;" style="whiteSpace=wrap;html=1;rounded=1;glass=0;strokeWidth=1;shadow=0;" vertex="1" parent="WIyWlLk6GJQsqaUBKTNV-1">
          <mxGeometry x="1388.75" y="660" width="447.5" height="30" as="geometry" />
        </mxCell>
        <mxCell id="VZu7ic2Oy0kzdrfZ3mis-63" value="&lt;div style=&quot;color: rgb(171, 178, 191); background-color: rgb(40, 44, 52); font-family: &amp;quot;Fira Code&amp;quot;, Consolas, &amp;quot;Courier New&amp;quot;, monospace; font-size: 16px; line-height: 22px;&quot;&gt;CameraCreateThread(, , &lt;span style=&quot;color: #56b6c2;&quot;&gt;&amp;amp;&lt;/span&gt;ais_client_health_thread, , , , )&lt;br&gt;&lt;/div&gt;" style="whiteSpace=wrap;html=1;rounded=1;glass=0;strokeWidth=1;shadow=0;" vertex="1" parent="WIyWlLk6GJQsqaUBKTNV-1">
          <mxGeometry x="990" y="661.5" width="312.5" height="50" as="geometry" />
        </mxCell>
        <mxCell id="VZu7ic2Oy0kzdrfZ3mis-65" value="&lt;div style=&quot;color: rgb(171, 178, 191); background-color: rgb(40, 44, 52); font-family: &amp;quot;Fira Code&amp;quot;, Consolas, &amp;quot;Courier New&amp;quot;, monospace; font-size: 16px; line-height: 22px;&quot;&gt;&lt;div&gt;g_pm_handle.&lt;span style=&quot;color: #e06c75;&quot;&gt;p_power_event_callback&lt;/span&gt; &lt;span style=&quot;color: #c678dd;&quot;&gt;=&lt;/span&gt;&amp;nbsp;&lt;br&gt;qcarcam_test_power_event_callback;&lt;/div&gt;&lt;div&gt;&lt;span style=&quot;color: rgb(229, 192, 123);&quot;&gt;g_pm_handle&lt;/span&gt;.&lt;span style=&quot;color: rgb(224, 108, 117);&quot;&gt;event_client_data&lt;/span&gt; &lt;span style=&quot;color: rgb(198, 120, 221);&quot;&gt;=&lt;/span&gt;&lt;/div&gt;&lt;div&gt;gCtxt;&lt;/div&gt;&lt;/div&gt;" style="whiteSpace=wrap;html=1;rounded=1;glass=0;strokeWidth=1;shadow=0;" vertex="1" parent="WIyWlLk6GJQsqaUBKTNV-1">
          <mxGeometry x="-370" y="324.38" width="330" height="100" as="geometry" />
        </mxCell>
        <mxCell id="VZu7ic2Oy0kzdrfZ3mis-71" value="" style="edgeStyle=orthogonalEdgeStyle;rounded=0;orthogonalLoop=1;jettySize=auto;html=1;" edge="1" parent="WIyWlLk6GJQsqaUBKTNV-1" source="VZu7ic2Oy0kzdrfZ3mis-68" target="VZu7ic2Oy0kzdrfZ3mis-70">
          <mxGeometry relative="1" as="geometry" />
        </mxCell>
        <mxCell id="VZu7ic2Oy0kzdrfZ3mis-68" value="&lt;span style=&quot;background-color: rgb(40, 44, 52); color: rgb(171, 178, 191); font-family: &amp;quot;Fira Code&amp;quot;, Consolas, &amp;quot;Courier New&amp;quot;, monospace; font-size: 16px;&quot;&gt;test_util_qnx.cpp&lt;/span&gt;&lt;br&gt;&lt;div style=&quot;color: rgb(171, 178, 191); background-color: rgb(40, 44, 52); font-family: &amp;quot;Fira Code&amp;quot;, Consolas, &amp;quot;Courier New&amp;quot;, monospace; font-size: 16px; line-height: 22px;&quot;&gt;test_util_init&lt;/div&gt;" style="whiteSpace=wrap;html=1;rounded=1;glass=0;strokeWidth=1;shadow=0;" vertex="1" parent="WIyWlLk6GJQsqaUBKTNV-1">
          <mxGeometry x="-285" y="438.44" width="160" height="50" as="geometry" />
        </mxCell>
        <mxCell id="VZu7ic2Oy0kzdrfZ3mis-73" value="" style="edgeStyle=orthogonalEdgeStyle;rounded=0;orthogonalLoop=1;jettySize=auto;html=1;" edge="1" parent="WIyWlLk6GJQsqaUBKTNV-1" source="VZu7ic2Oy0kzdrfZ3mis-70" target="VZu7ic2Oy0kzdrfZ3mis-72">
          <mxGeometry relative="1" as="geometry" />
        </mxCell>
        <mxCell id="VZu7ic2Oy0kzdrfZ3mis-70" value="&lt;div style=&quot;color: rgb(171, 178, 191); background-color: rgb(40, 44, 52); font-family: &amp;quot;Fira Code&amp;quot;, Consolas, &amp;quot;Courier New&amp;quot;, monospace; font-size: 16px; line-height: 22px;&quot;&gt;pCtxt &lt;span style=&quot;color: #c678dd;&quot;&gt;=&lt;/span&gt; (&lt;span style=&quot;color: #e5c07b;&quot;&gt;test_util_ctxt_t&lt;/span&gt;&lt;span style=&quot;color: #56b6c2;&quot;&gt;*&lt;/span&gt;)&lt;span style=&quot;color: #61afef;&quot;&gt;calloc&lt;/span&gt;&lt;/div&gt;" style="whiteSpace=wrap;html=1;rounded=1;glass=0;strokeWidth=1;shadow=0;" vertex="1" parent="WIyWlLk6GJQsqaUBKTNV-1">
          <mxGeometry x="-355" y="530" width="300" height="36.56" as="geometry" />
        </mxCell>
        <mxCell id="VZu7ic2Oy0kzdrfZ3mis-75" value="" style="edgeStyle=orthogonalEdgeStyle;rounded=0;orthogonalLoop=1;jettySize=auto;html=1;" edge="1" parent="WIyWlLk6GJQsqaUBKTNV-1" source="VZu7ic2Oy0kzdrfZ3mis-72" target="VZu7ic2Oy0kzdrfZ3mis-74">
          <mxGeometry relative="1" as="geometry" />
        </mxCell>
        <mxCell id="VZu7ic2Oy0kzdrfZ3mis-72" value="&lt;div style=&quot;color: rgb(171, 178, 191); background-color: rgb(40, 44, 52); font-family: &amp;quot;Fira Code&amp;quot;, Consolas, &amp;quot;Courier New&amp;quot;, monospace; font-size: 16px; line-height: 22px;&quot;&gt;screen_create_context&lt;/div&gt;" style="whiteSpace=wrap;html=1;rounded=1;glass=0;strokeWidth=1;shadow=0;" vertex="1" parent="WIyWlLk6GJQsqaUBKTNV-1">
          <mxGeometry x="-300" y="620.32" width="190" height="25.16" as="geometry" />
        </mxCell>
        <mxCell id="VZu7ic2Oy0kzdrfZ3mis-77" value="" style="edgeStyle=orthogonalEdgeStyle;rounded=0;orthogonalLoop=1;jettySize=auto;html=1;" edge="1" parent="WIyWlLk6GJQsqaUBKTNV-1" source="VZu7ic2Oy0kzdrfZ3mis-74" target="VZu7ic2Oy0kzdrfZ3mis-76">
          <mxGeometry relative="1" as="geometry" />
        </mxCell>
        <mxCell id="VZu7ic2Oy0kzdrfZ3mis-74" value="&lt;div style=&quot;color: rgb(171, 178, 191); background-color: rgb(40, 44, 52); font-family: &amp;quot;Fira Code&amp;quot;, Consolas, &amp;quot;Courier New&amp;quot;, monospace; font-size: 16px; line-height: 22px;&quot;&gt;screen_get_context_property_iv&lt;/div&gt;" style="whiteSpace=wrap;html=1;rounded=1;glass=0;strokeWidth=1;shadow=0;" vertex="1" parent="WIyWlLk6GJQsqaUBKTNV-1">
          <mxGeometry x="-340" y="702.42" width="270" height="31.94" as="geometry" />
        </mxCell>
        <mxCell id="VZu7ic2Oy0kzdrfZ3mis-79" value="" style="edgeStyle=orthogonalEdgeStyle;rounded=0;orthogonalLoop=1;jettySize=auto;html=1;" edge="1" parent="WIyWlLk6GJQsqaUBKTNV-1" source="VZu7ic2Oy0kzdrfZ3mis-76" target="VZu7ic2Oy0kzdrfZ3mis-78">
          <mxGeometry relative="1" as="geometry" />
        </mxCell>
        <mxCell id="VZu7ic2Oy0kzdrfZ3mis-76" value="&lt;div style=&quot;color: rgb(171, 178, 191); background-color: rgb(40, 44, 52); font-family: &amp;quot;Fira Code&amp;quot;, Consolas, &amp;quot;Courier New&amp;quot;, monospace; font-size: 16px; line-height: 22px;&quot;&gt;screen_get_display_property_iv&lt;/div&gt;" style="whiteSpace=wrap;html=1;rounded=1;glass=0;strokeWidth=1;shadow=0;" vertex="1" parent="WIyWlLk6GJQsqaUBKTNV-1">
          <mxGeometry x="-340" y="780.33" width="270" height="29.67" as="geometry" />
        </mxCell>
        <mxCell id="VZu7ic2Oy0kzdrfZ3mis-78" value="&lt;div style=&quot;color: rgb(171, 178, 191); background-color: rgb(40, 44, 52); font-family: &amp;quot;Fira Code&amp;quot;, Consolas, &amp;quot;Courier New&amp;quot;, monospace; font-size: 16px; line-height: 22px;&quot;&gt;test_util_register_pm_resource&lt;/div&gt;" style="whiteSpace=wrap;html=1;rounded=1;glass=0;strokeWidth=1;shadow=0;" vertex="1" parent="WIyWlLk6GJQsqaUBKTNV-1">
          <mxGeometry x="-340" y="860" width="270" height="35.16" as="geometry" />
        </mxCell>
        <mxCell id="VZu7ic2Oy0kzdrfZ3mis-80" value="&lt;div style=&quot;color: rgb(171, 178, 191); background-color: rgb(40, 44, 52); font-family: &amp;quot;Fira Code&amp;quot;, Consolas, &amp;quot;Courier New&amp;quot;, monospace; font-size: 16px; line-height: 22px;&quot;&gt;ais_client.c&lt;/div&gt;&lt;div style=&quot;color: rgb(171, 178, 191); background-color: rgb(40, 44, 52); font-family: &amp;quot;Fira Code&amp;quot;, Consolas, &amp;quot;Courier New&amp;quot;, monospace; font-size: 16px; line-height: 22px;&quot;&gt;ais_query_inputs&lt;/div&gt;" style="whiteSpace=wrap;html=1;rounded=1;glass=0;strokeWidth=1;shadow=0;" vertex="1" parent="WIyWlLk6GJQsqaUBKTNV-1">
          <mxGeometry x="420" y="601.61" width="150" height="52.26" as="geometry" />
        </mxCell>
        <mxCell id="VZu7ic2Oy0kzdrfZ3mis-82" value="&lt;div style=&quot;color: rgb(171, 178, 191); background-color: rgb(40, 44, 52); font-family: &amp;quot;Fira Code&amp;quot;, Consolas, &amp;quot;Courier New&amp;quot;, monospace; font-size: 16px; line-height: 22px;&quot;&gt;CameraCreateThread(, , &lt;span style=&quot;color: #56b6c2;&quot;&gt;&amp;amp;&lt;/span&gt;gpio_interrupt_thread, , , , )&lt;br&gt;&lt;/div&gt;" style="whiteSpace=wrap;html=1;rounded=1;glass=0;strokeWidth=1;shadow=0;" vertex="1" parent="WIyWlLk6GJQsqaUBKTNV-1">
          <mxGeometry x="446.25" y="998.75" width="483.75" height="31.25" as="geometry" />
        </mxCell>
        <mxCell id="VZu7ic2Oy0kzdrfZ3mis-84" value="&lt;div style=&quot;color: rgb(171, 178, 191); background-color: rgb(40, 44, 52); font-family: &amp;quot;Fira Code&amp;quot;, Consolas, &amp;quot;Courier New&amp;quot;, monospace; font-size: 16px; line-height: 22px;&quot;&gt;qcarcam_test_get_frame_rate&lt;/div&gt;" style="whiteSpace=wrap;html=1;rounded=1;glass=0;strokeWidth=1;shadow=0;" vertex="1" parent="WIyWlLk6GJQsqaUBKTNV-1">
          <mxGeometry x="566.88" y="1077.5" width="242.5" height="35" as="geometry" />
        </mxCell>
        <mxCell id="VZu7ic2Oy0kzdrfZ3mis-89" value="" style="edgeStyle=orthogonalEdgeStyle;rounded=0;orthogonalLoop=1;jettySize=auto;html=1;" edge="1" parent="WIyWlLk6GJQsqaUBKTNV-1" source="VZu7ic2Oy0kzdrfZ3mis-86" target="VZu7ic2Oy0kzdrfZ3mis-88">
          <mxGeometry relative="1" as="geometry" />
        </mxCell>
        <mxCell id="VZu7ic2Oy0kzdrfZ3mis-86" value="&lt;div style=&quot;color: rgb(171, 178, 191); background-color: rgb(40, 44, 52); font-family: &amp;quot;Fira Code&amp;quot;, Consolas, &amp;quot;Courier New&amp;quot;, monospace; font-size: 16px; line-height: 22px;&quot;&gt;test_util_init_window&lt;/div&gt;" style="whiteSpace=wrap;html=1;rounded=1;glass=0;strokeWidth=1;shadow=0;" vertex="1" parent="WIyWlLk6GJQsqaUBKTNV-1">
          <mxGeometry x="117.5" y="1140" width="195" height="35" as="geometry" />
        </mxCell>
        <mxCell id="VZu7ic2Oy0kzdrfZ3mis-91" value="" style="edgeStyle=orthogonalEdgeStyle;rounded=0;orthogonalLoop=1;jettySize=auto;html=1;" edge="1" parent="WIyWlLk6GJQsqaUBKTNV-1" source="VZu7ic2Oy0kzdrfZ3mis-88" target="VZu7ic2Oy0kzdrfZ3mis-90">
          <mxGeometry relative="1" as="geometry" />
        </mxCell>
        <mxCell id="VZu7ic2Oy0kzdrfZ3mis-88" value="&lt;div style=&quot;color: rgb(171, 178, 191); background-color: rgb(40, 44, 52); font-family: &amp;quot;Fira Code&amp;quot;, Consolas, &amp;quot;Courier New&amp;quot;, monospace; font-size: 16px; line-height: 22px;&quot;&gt;test_util_set_diag&lt;/div&gt;" style="whiteSpace=wrap;html=1;rounded=1;glass=0;strokeWidth=1;shadow=0;" vertex="1" parent="WIyWlLk6GJQsqaUBKTNV-1">
          <mxGeometry x="132.5" y="1210" width="165" height="37.5" as="geometry" />
        </mxCell>
        <mxCell id="VZu7ic2Oy0kzdrfZ3mis-93" value="" style="edgeStyle=orthogonalEdgeStyle;rounded=0;orthogonalLoop=1;jettySize=auto;html=1;" edge="1" parent="WIyWlLk6GJQsqaUBKTNV-1" source="VZu7ic2Oy0kzdrfZ3mis-90" target="VZu7ic2Oy0kzdrfZ3mis-92">
          <mxGeometry relative="1" as="geometry" />
        </mxCell>
        <mxCell id="VZu7ic2Oy0kzdrfZ3mis-90" value="&lt;div style=&quot;color: rgb(171, 178, 191); background-color: rgb(40, 44, 52); font-family: &amp;quot;Fira Code&amp;quot;, Consolas, &amp;quot;Courier New&amp;quot;, monospace; font-size: 16px; line-height: 22px;&quot;&gt;test_util_set_window_param&lt;/div&gt;" style="whiteSpace=wrap;html=1;rounded=1;glass=0;strokeWidth=1;shadow=0;" vertex="1" parent="WIyWlLk6GJQsqaUBKTNV-1">
          <mxGeometry x="93.75" y="1280" width="242.5" height="31.25" as="geometry" />
        </mxCell>
        <mxCell id="VZu7ic2Oy0kzdrfZ3mis-95" style="edgeStyle=orthogonalEdgeStyle;rounded=0;orthogonalLoop=1;jettySize=auto;html=1;" edge="1" parent="WIyWlLk6GJQsqaUBKTNV-1" source="VZu7ic2Oy0kzdrfZ3mis-92" target="VZu7ic2Oy0kzdrfZ3mis-94">
          <mxGeometry relative="1" as="geometry" />
        </mxCell>
        <mxCell id="VZu7ic2Oy0kzdrfZ3mis-92" value="&lt;div style=&quot;color: rgb(171, 178, 191); background-color: rgb(40, 44, 52); font-family: &amp;quot;Fira Code&amp;quot;, Consolas, &amp;quot;Courier New&amp;quot;, monospace; font-size: 16px; line-height: 22px;&quot;&gt;test_util_init_window_buffers&lt;/div&gt;" style="whiteSpace=wrap;html=1;rounded=1;glass=0;strokeWidth=1;shadow=0;" vertex="1" parent="WIyWlLk6GJQsqaUBKTNV-1">
          <mxGeometry x="82.5" y="1340" width="265" height="36.88" as="geometry" />
        </mxCell>
        <mxCell id="VZu7ic2Oy0kzdrfZ3mis-99" style="edgeStyle=orthogonalEdgeStyle;rounded=0;orthogonalLoop=1;jettySize=auto;html=1;entryX=0.5;entryY=0;entryDx=0;entryDy=0;" edge="1" parent="WIyWlLk6GJQsqaUBKTNV-1" source="VZu7ic2Oy0kzdrfZ3mis-94" target="VZu7ic2Oy0kzdrfZ3mis-96">
          <mxGeometry relative="1" as="geometry" />
        </mxCell>
        <mxCell id="VZu7ic2Oy0kzdrfZ3mis-94" value="&lt;div style=&quot;color: rgb(171, 178, 191); background-color: rgb(40, 44, 52); font-family: &amp;quot;Fira Code&amp;quot;, Consolas, &amp;quot;Courier New&amp;quot;, monospace; font-size: 16px; line-height: 22px;&quot;&gt;CameraCreateThread(, , &lt;span style=&quot;color: #56b6c2;&quot;&gt;&amp;amp;&lt;/span&gt;qcarcam_test_setup_input_ctxt_thread, , , , )&lt;br&gt;&lt;/div&gt;" style="whiteSpace=wrap;html=1;rounded=1;glass=0;strokeWidth=1;shadow=0;" vertex="1" parent="WIyWlLk6GJQsqaUBKTNV-1">
          <mxGeometry x="-96.87" y="1410" width="623.75" height="30" as="geometry" />
        </mxCell>
        <mxCell id="VZu7ic2Oy0kzdrfZ3mis-100" style="edgeStyle=orthogonalEdgeStyle;rounded=0;orthogonalLoop=1;jettySize=auto;html=1;entryX=0.5;entryY=0;entryDx=0;entryDy=0;" edge="1" parent="WIyWlLk6GJQsqaUBKTNV-1" source="VZu7ic2Oy0kzdrfZ3mis-96" target="VZu7ic2Oy0kzdrfZ3mis-97">
          <mxGeometry relative="1" as="geometry" />
        </mxCell>
        <mxCell id="VZu7ic2Oy0kzdrfZ3mis-96" value="&lt;div style=&quot;color: rgb(171, 178, 191); background-color: rgb(40, 44, 52); font-family: &amp;quot;Fira Code&amp;quot;, Consolas, &amp;quot;Courier New&amp;quot;, monospace; font-size: 16px; line-height: 22px;&quot;&gt;CameraCreateThread(, , &lt;span style=&quot;color: #56b6c2;&quot;&gt;&amp;amp;&lt;/span&gt;process_cb_event_thread, , , , )&lt;br&gt;&lt;/div&gt;" style="whiteSpace=wrap;html=1;rounded=1;glass=0;strokeWidth=1;shadow=0;" vertex="1" parent="WIyWlLk6GJQsqaUBKTNV-1">
          <mxGeometry x="-38.43000000000001" y="1480" width="506.87" height="30" as="geometry" />
        </mxCell>
        <mxCell id="VZu7ic2Oy0kzdrfZ3mis-101" style="edgeStyle=orthogonalEdgeStyle;rounded=0;orthogonalLoop=1;jettySize=auto;html=1;entryX=0.5;entryY=0;entryDx=0;entryDy=0;" edge="1" parent="WIyWlLk6GJQsqaUBKTNV-1" source="VZu7ic2Oy0kzdrfZ3mis-97" target="VZu7ic2Oy0kzdrfZ3mis-98">
          <mxGeometry relative="1" as="geometry" />
        </mxCell>
        <mxCell id="VZu7ic2Oy0kzdrfZ3mis-97" value="&lt;div style=&quot;color: rgb(171, 178, 191); background-color: rgb(40, 44, 52); font-family: &amp;quot;Fira Code&amp;quot;, Consolas, &amp;quot;Courier New&amp;quot;, monospace; font-size: 16px; line-height: 22px;&quot;&gt;CameraCreateThread(, , &lt;span style=&quot;color: #56b6c2;&quot;&gt;&amp;amp;&lt;/span&gt;injection_thread, , , , )&lt;br&gt;&lt;/div&gt;" style="whiteSpace=wrap;html=1;rounded=1;glass=0;strokeWidth=1;shadow=0;" vertex="1" parent="WIyWlLk6GJQsqaUBKTNV-1">
          <mxGeometry x="-8.430000000000007" y="1550" width="446.87" height="30" as="geometry" />
        </mxCell>
        <mxCell id="VZu7ic2Oy0kzdrfZ3mis-104" style="edgeStyle=orthogonalEdgeStyle;rounded=0;orthogonalLoop=1;jettySize=auto;html=1;entryX=0.5;entryY=0;entryDx=0;entryDy=0;" edge="1" parent="WIyWlLk6GJQsqaUBKTNV-1" source="VZu7ic2Oy0kzdrfZ3mis-98" target="VZu7ic2Oy0kzdrfZ3mis-102">
          <mxGeometry relative="1" as="geometry" />
        </mxCell>
        <mxCell id="VZu7ic2Oy0kzdrfZ3mis-98" value="&lt;div style=&quot;color: rgb(171, 178, 191); background-color: rgb(40, 44, 52); font-family: &amp;quot;Fira Code&amp;quot;, Consolas, &amp;quot;Courier New&amp;quot;, monospace; font-size: 16px; line-height: 22px;&quot;&gt;CameraCreateThread(, , &lt;span style=&quot;color: #56b6c2;&quot;&gt;&amp;amp;&lt;/span&gt;inpt_ctxt_usr_process_thread, , , , )&lt;br&gt;&lt;/div&gt;" style="whiteSpace=wrap;html=1;rounded=1;glass=0;strokeWidth=1;shadow=0;" vertex="1" parent="WIyWlLk6GJQsqaUBKTNV-1">
          <mxGeometry x="-57.50000000000001" y="1620" width="546.87" height="30" as="geometry" />
        </mxCell>
        <mxCell id="VZu7ic2Oy0kzdrfZ3mis-102" value="&lt;div style=&quot;color: rgb(171, 178, 191); background-color: rgb(40, 44, 52); font-family: &amp;quot;Fira Code&amp;quot;, Consolas, &amp;quot;Courier New&amp;quot;, monospace; font-size: 16px; line-height: 22px;&quot;&gt;CameraCreateThread(, , &lt;span style=&quot;color: #56b6c2;&quot;&gt;&amp;amp;&lt;/span&gt;timer_thread, , , , )&lt;br&gt;&lt;/div&gt;" style="whiteSpace=wrap;html=1;rounded=1;glass=0;strokeWidth=1;shadow=0;" vertex="1" parent="WIyWlLk6GJQsqaUBKTNV-1">
          <mxGeometry x="12.5" y="1690" width="405" height="30" as="geometry" />
        </mxCell>
      </root>
    </mxGraphModel>
  </diagram>
</mxfile>
